<svg viewBox="0 -81 512 512" xmlns="http://www.w3.org/2000/svg"><path d="m509.105469 84.265625c1.796875-2.085937 2.894531-4.792969 2.894531-7.757813 0-28.828124-23.453125-52.28125-52.28125-52.28125h-189.71875c-4.144531 0-7.5 3.355469-7.5 7.5 0 4.140626 3.355469 7.5 7.5 7.5h189.71875c12.484375 0 23.550781 6.171876 30.320312 15.625-7.902343-4.679687-17.050781-7.273437-26.648437-7.273437h-311.84375v-8.351563h90.453125c4.140625 0 7.5-3.359374 7.5-7.5 0-4.144531-3.359375-7.5-7.5-7.5h-90.453125v-9.703124c0-8.007813-6.515625-14.523438-14.523437-14.523438h-22.757813c-8.007813 0-14.523437 6.515625-14.523437 14.523438v9.703124h-67.648438c-17.695312 0-32.09375 14.394532-32.09375 32.09375 0 17.695313 14.398438 32.089844 32.09375 32.089844h67.648438v8.96875c0 8.011719 6.515624 14.523438 14.523437 14.523438h22.757813c8.007812 0 14.523437-6.515625 14.523437-14.523438v-8.96875h19.542969v62.042969h-86.167969c-9.140625 0-16.578125 7.4375-16.578125 16.574219v31.03125c0 9.140625 7.4375 16.578125 16.578125 16.578125h86.167969v44.464843h-61.386719c-6.96875 0-12.640625 5.671876-12.640625 12.640626v24.992187h-27.359375c-6.96875 0-12.640625 5.671875-12.640625 12.640625v27.351562c0 6.96875 5.671875 12.640626 12.640625 12.640626h372.59375c6.96875 0 12.640625-5.671876 12.640625-12.640626v-27.351562c0-6.96875-5.671875-12.640625-12.640625-12.640625h-27.359375v-24.992187c0-6.96875-5.671875-12.640626-12.640625-12.640626h-61.390625v-44.464843h86.171875c9.140625 0 16.578125-7.4375 16.578125-16.578125v-31.03125c0-9.140625-7.4375-16.574219-16.578125-16.574219h-86.171875v-62.042969h159.191406c3.28125 0 6.257813-1.335937 8.414063-3.488281.210937-.207031.410156-.429687.59375-.65625zm-285.382813 66.1875v-62.042969h64.550782v62.042969zm64.550782-77.042969h-64.550782v-10.832031h64.550782zm-197.191407 0v-17.089844c0-4.144531-3.359375-7.5-7.5-7.5s-7.5 3.355469-7.5 7.5v17.089844h-11.210937v-17.089844c0-4.144531-3.359375-7.5-7.5-7.5s-7.5 3.355469-7.5 7.5v17.089844h-17.777344c-9.425781 0-17.09375-7.667968-17.09375-17.089844 0-9.425781 7.667969-17.09375 17.09375-17.09375h67.648438v34.183594zm23.660157 23.492188v-15.980469c0-.003906 0-.007813 0-.011719s0-.003906 0-.007812v-49.167969c0-.003906 0-.003906 0-.007813 0-.003906 0-.007812 0-.011718v-16.714844h21.804687v38.636719c-.09375.464843-.144531.949219-.144531 1.441406s.050781.972656.144531 1.441406v22.964844c-.089844.464844-.140625.9375-.140625 1.425781 0 .488282.050781.964844.140625 1.425782v14.566406zm36.804687-23.492188v-10.832031h19.542969v10.832031zm34.546875 7.511719c0-.003906 0-.007813 0-.011719s0-.003906 0-.007812v-18.324219h22.628906v87.871094h-22.628906zm-49.949219 84.53125v34.183594h-17v-34.183594zm-52.800781 32.605469v-31.03125c0-.867188.707031-1.574219 1.578125-1.574219h19.222656v34.183594h-19.222656c-.871094 0-1.578125-.707031-1.578125-1.578125zm102.75 9.089844c0-.003907 0-.007813 0-.011719 0-.003907 0-.003907 0-.007813v-17.085937h22.628906v17.085937.007813.011719 51.953124h-22.628906zm102.179688 51.953124h-64.550782v-44.464843h64.550782zm111.664062 37.632813h-70.867188c-4.140624 0-7.5 3.359375-7.5 7.5 0 4.144531 3.359376 7.5 7.5 7.5h110.867188v22.632813h-367.875v-22.632813h229.007812c4.144532 0 7.5-3.355469 7.5-7.5 0-4.140625-3.355468-7.5-7.5-7.5h-189.007812v-22.632813h287.875zm-96.664062-37.632813v-69.058593h22.632812v69.058593zm125.382812-92.074218v31.03125c0 .871094-.707031 1.578125-1.578125 1.578125h-86.171875v-11.953125c0-6.96875-5.667969-12.640625-12.640625-12.640625h-27.351563c-6.96875 0-12.640624 5.671875-12.640624 12.640625v11.953125h-64.550782v-11.953125c0-6.96875-5.667968-12.640625-12.640625-12.640625h-27.351562c-6.96875 0-12.640625 5.671875-12.640625 12.640625v11.953125h-19.949219v-34.1875h275.933594c.875.003906 1.582031.710937 1.582031 1.578125zm-125.382812-16.574219v-87.875h22.632812v87.875zm37.632812-87.875h122.484375c10.046875 0 19.390625 3.992187 26.261719 10.832031h-148.746094zm0 0"/></svg>