<?xml version="1.0" encoding="iso-8859-1"?>
<!-- Generator: Adobe Illustrator 19.0.0, SVG Export Plug-In . SVG Version: 6.00 Build 0)  -->
<svg version="1.1" id="Capa_1" xmlns="http://www.w3.org/2000/svg" xmlns:xlink="http://www.w3.org/1999/xlink" x="0px" y="0px"
	 viewBox="0 0 512 512" style="enable-background:new 0 0 512 512;" xml:space="preserve">
<g>
	<g>
		<path d="M190.074,425.235c-1.859-1.861-4.438-2.93-7.068-2.93c-2.63,0-5.209,1.07-7.069,2.93c-1.86,1.86-2.93,4.439-2.93,7.069
			c0,2.64,1.069,5.209,2.93,7.069c1.86,1.87,4.439,2.93,7.069,2.93c2.63,0,5.209-1.06,7.068-2.93c1.86-1.86,2.931-4.439,2.931-7.069
			C193.004,429.674,191.935,427.105,190.074,425.235z"/>
	</g>
</g>
<g>
	<g>
		<path d="M367.467,402.897c-1.859-1.86-4.438-2.93-7.068-2.93c-2.63,0-5.209,1.07-7.069,2.93c-1.86,1.86-2.93,4.439-2.93,7.069
			c0,2.63,1.069,5.209,2.93,7.069c1.86,1.86,4.439,2.93,7.069,2.93c2.63,0,5.209-1.07,7.068-2.93c1.86-1.86,2.931-4.439,2.931-7.069
			C370.398,407.337,369.328,404.757,367.467,402.897z"/>
	</g>
</g>
<g>
	<g>
		<path d="M339.716,375.145L296,331.428c-3.905-3.904-10.234-3.904-14.141,0c-3.904,3.904-3.904,10.235,0.001,14.141l43.716,43.716
			c1.953,1.953,4.511,2.929,7.07,2.929s5.117-0.976,7.07-2.929C343.621,385.381,343.621,379.05,339.716,375.145z"/>
	</g>
</g>
<g>
	<g>
		<path d="M456.667,444.027L321.046,308.407l33.35-33.35c0.001-0.001,0.002-0.001,0.003-0.002c0.001-0.001,0.001-0.002,0.002-0.003
			l35.348-35.348c9.031-9.032,11.712-22.036,8.064-33.437c5.179-1.43,10.069-4.168,14.133-8.231
			c6.074-6.075,9.421-14.151,9.421-22.743c0-6.633-2.003-12.955-5.708-18.29c3.207-4.822,5.08-10.603,5.08-16.816V118.26
			c0-12.855-8.01-23.867-19.297-28.33c0.461-2.701,0.566-5.479,0.278-8.279c-0.83-8.093-4.763-15.378-11.072-20.513L373.64,47.298
			c-6.258-5.092-14.111-7.46-22.135-6.69c-0.311-1.042-0.673-2.075-1.098-3.093c-3.136-7.507-9.007-13.344-16.532-16.435
			l-20.281-8.332c-6.726-2.764-14.052-3.031-20.893-0.82C287.129,4.682,278.38,0,268.554,0h-21.927
			c-9.804,0-18.533,4.66-24.108,11.876c-6.796-2.158-14.063-1.873-20.739,0.871l-20.283,8.333
			c-8.859,3.639-15.081,11.005-17.612,19.543c-7.702-0.744-15.689,1.417-22.151,6.675l-17.006,13.84
			c-8.818,7.177-12.563,18.303-10.777,28.786c-11.296,4.458-19.314,15.475-19.314,28.337v21.927c0,5.187,1.307,10.073,3.603,14.353
			c-10.681,12.623-10.081,31.597,1.817,43.495c0,0,0,0,0.001,0c4.057,4.057,8.941,6.794,14.113,8.226
			c-1.034,3.226-1.58,6.626-1.58,10.111c0,8.814,3.432,17.099,9.664,23.331l35.347,35.347c0.001,0.001,0.002,0.003,0.003,0.004
			c0.001,0.001,0.002,0.002,0.004,0.003l33.349,33.349L55.337,444.027c-3.904,3.904-3.904,10.235,0,14.141l50.903,50.903
			c1.953,1.953,4.511,2.929,7.07,2.929s5.117-0.977,7.07-2.929l38.199-38.199c3.904-3.904,3.904-10.235,0-14.14
			c-3.904-3.904-10.233-3.904-14.141,0l-31.129,31.129l-36.764-36.764l128.551-128.55l36.763,36.763l-38.646,38.646
			c-3.904,3.904-3.904,10.235,0,14.14c1.953,1.953,4.511,2.929,7.07,2.929c2.559,0,5.117-0.977,7.07-2.929l38.645-38.646
			l135.621,135.621c1.953,1.953,4.511,2.929,7.07,2.929c2.559,0,5.118-0.977,7.07-2.929l50.904-50.904
			c1.875-1.875,2.929-4.418,2.929-7.07S458.541,445.903,456.667,444.027z M306.906,294.266l-36.764-36.763l26.282-26.282
			l36.764,36.763L306.906,294.266z M375.608,225.564l-28.28,28.28l-36.764-36.763l28.28-28.28c5.067-5.068,13.314-5.068,18.382,0
			l9.231,9.231c0.002,0.002,0.003,0.003,0.005,0.005c0.002,0.002,0.003,0.003,0.005,0.005l9.142,9.141
			C380.676,212.25,380.676,220.497,375.608,225.564z M397.805,183.896c-4.741,4.743-12.461,4.743-17.202,0
			c-2.299-2.298-3.563-5.353-3.563-8.602c0-2.313,0.652-4.522,1.852-6.435c3.21,1.153,6.666,1.786,10.268,1.786h1.124
			c3.284,0,6.445-0.529,9.411-1.495c1.086,1.846,1.677,3.947,1.677,6.145C401.369,178.543,400.103,181.599,397.805,183.896z
			 M391.503,107.879c5.193,0.608,9.238,5.029,9.238,10.382v21.927c0,1.68-0.408,3.263-1.115,4.671
			c-3.311-1.131-6.821-1.727-10.423-1.727c-3.281,0-6.485,0.492-9.534,1.433c-0.618-1.334-0.973-2.814-0.973-4.377v-21.927
			c0-1.2,0.213-2.348,0.587-3.421C383.752,113.535,387.952,111.2,391.503,107.879z M350.048,61.864l0.226-0.549
			c0.966-0.415,1.999-0.689,3.073-0.8c0.364-0.036,0.727-0.055,1.088-0.055c2.396,0,4.699,0.815,6.582,2.348l17.007,13.841
			c2.167,1.764,3.517,4.265,3.803,7.044c0.186,1.812-0.104,3.597-0.811,5.224c-4.71,1.309-8.966,3.717-12.465,6.94
			c-1.58-0.331-3.106-1.025-4.441-2.112l-17.006-13.84c-2.489-2.026-3.798-4.968-3.847-7.951
			C346.096,69.16,348.441,65.775,350.048,61.864z M299.012,31.581v-0.68c0.984-0.298,1.995-0.448,3.008-0.448
			c1.347,0,2.693,0.264,3.976,0.791l20.282,8.333c2.585,1.062,4.6,3.066,5.677,5.644c0.577,1.38,0.837,2.836,0.8,4.287
			c-0.685,0.695-1.341,1.424-1.964,2.19l-0.707,0.87c-1.891,2.323-3.373,4.844-4.472,7.477c-2.405,0.922-5.147,0.975-7.711-0.079
			l-20.281-8.333c-1.549-0.637-2.888-1.617-3.948-2.851C297.038,43.884,299.012,37.959,299.012,31.581z M246.627,19.997h21.927
			c3.305,0,6.252,1.545,8.17,3.946c-1.124,1.683-2.091,3.488-2.877,5.403l-0.427,1.04c-1.501,3.654-2.261,7.487-2.293,11.321
			c-0.825,0.21-1.684,0.333-2.574,0.333h-21.927c-0.826,0-1.626-0.106-2.397-0.288c-0.021-3.795-0.748-7.648-2.276-11.369
			c-0.001-0.002-0.002-0.003-0.002-0.005l-0.426-1.034c-0.808-1.966-1.807-3.814-2.969-5.535
			C240.478,21.483,243.383,19.997,246.627,19.997z M189.097,39.577l20.283-8.333c1.283-0.527,2.63-0.791,3.976-0.791
			c0.946,0,1.891,0.139,2.814,0.399v0.728c0,6.429,2.008,12.395,5.421,17.316c-1.024,1.157-2.312,2.111-3.833,2.737l-20.283,8.333
			c-2.481,1.019-5.196,1.042-7.691,0.091c-1.116-2.664-2.618-5.184-4.491-7.487l-0.711-0.873c-0.622-0.765-1.276-1.488-1.955-2.176
			C182.524,45.311,184.976,41.27,189.097,39.577z M190.819,80.639c0.892,0.08,1.786,0.126,2.681,0.126
			c3.919,0,7.841-0.767,11.575-2.302l20.283-8.333c5.06-2.08,9.256-5.379,12.4-9.414c2.809,0.857,5.785,1.321,8.87,1.321h21.927
			c3.135,0,6.16-0.477,9.009-1.361c3.219,4.145,7.471,7.404,12.456,9.453l20.281,8.333c3.775,1.552,7.687,2.286,11.536,2.286
			c0.915,0,1.824-0.055,2.729-0.137c1.694,5.627,5.026,10.824,9.917,14.805l17.006,13.84c2.343,1.907,4.893,3.383,7.55,4.485
			c-0.221,1.476-0.337,2.985-0.337,4.52v21.927c0,5.887,1.684,11.386,4.588,16.051c-2.321,3.141-4.023,6.654-5.062,10.385
			c-11.421-3.69-24.469-1.018-33.524,8.036l-68.703,68.702l-68.702-68.701c-9.06-9.059-22.117-11.729-33.543-8.03
			c-0.763-2.745-1.893-5.406-3.396-7.907c3.954-5.138,6.313-11.565,6.313-18.535v-21.927c0-1.533-0.116-3.039-0.336-4.51
			c2.684-1.119,5.23-2.608,7.548-4.494l17.008-13.842C185.67,91.528,189.081,86.408,190.819,80.639z M137.351,76.648l17.005-13.84
			c1.938-1.576,4.272-2.343,6.594-2.343c1.426,0,2.842,0.3,4.159,0.868l0.219,0.531c1.587,3.864,3.902,7.287,6.792,10.133
			c-0.006,0.287-0.017,0.575-0.046,0.863c-0.285,2.78-1.636,5.281-3.802,7.045l-17.008,13.841c-1.311,1.067-2.828,1.779-4.434,2.118
			c-3.5-3.224-7.755-5.634-12.466-6.944C132.549,84.728,133.638,79.67,137.351,76.648z M114.634,118.261
			c0-5.35,4.04-9.77,9.23-10.381c3.487,3.275,7.661,5.653,12.236,6.983c0.368,1.068,0.578,2.208,0.578,3.398v21.927
			c0,1.976-0.561,3.819-1.517,5.397c-3.866-1.609-8.049-2.453-12.361-2.453c-2.538,0-5.027,0.299-7.437,0.867
			c-0.465-1.183-0.729-2.466-0.729-3.811V118.261z M114.196,183.896L114.196,183.896c-4.291-4.292-4.685-11.013-1.21-15.768
			c3.713,1.616,7.806,2.517,12.107,2.517h1.123c2.551,0,5.027-0.319,7.397-0.913c2.349,4.575,1.615,10.337-2.213,14.164
			C126.659,188.641,118.94,188.639,114.196,183.896z M136.396,225.565c-2.457-2.456-3.807-5.72-3.807-9.192
			c0-3.471,1.352-6.736,3.807-9.191l18.382-18.382c2.534-2.535,5.862-3.801,9.191-3.801c3.328,0,6.657,1.267,9.191,3.801
			l28.28,28.28l-36.763,36.764L136.396,225.565z M398.691,487.862L178.815,267.985l36.763-36.764l219.877,219.878L398.691,487.862z"
			/>
	</g>
</g>
<g>
</g>
<g>
</g>
<g>
</g>
<g>
</g>
<g>
</g>
<g>
</g>
<g>
</g>
<g>
</g>
<g>
</g>
<g>
</g>
<g>
</g>
<g>
</g>
<g>
</g>
<g>
</g>
<g>
</g>
</svg>
