<svg viewBox="0 0 511 511.9995" xmlns="http://www.w3.org/2000/svg"><path d="m143.539062 292.058594-1.054687-1.054688 14.386719-14.382812c1.753906-1.753906 4.085937-2.722656 6.570312-2.722656 2.480469 0 4.816406.96875 6.570313 2.722656l15.773437 15.769531c6.902344 6.90625 8.011719 17.832031 2.632813 25.980469l-13.875 21.039062c-5.625 8.523438-4.464844 19.949219 2.753906 27.171875 4.085937 4.085938 9.546875 6.332031 15.253906 6.332031.730469 0 1.46875-.039062 2.207031-.113281 6.484376-.65625 12.261719-4.15625 15.851563-9.597656l13.878906-21.035156c16.625-25.199219 13.199219-58.984375-8.148437-80.332031l-15.769532-15.769532c-3.625-3.625-3.625-9.519531 0-13.144531l193.074219-193.074219c8.53125-8.535156 9.40625-21.914062 2.03125-31.117187-4.140625-5.164063-10.277343-8.335938-16.847656-8.6953128-6.582031-.3632812-13.011719 2.0976558-17.660156 6.7499998l-131.503907 131.503906c-2.929687 2.929688-2.929687 7.679688 0 10.605469 2.929688 2.929688 7.675782 2.929688 10.605469 0l131.503907-131.503906c1.664062-1.664063 3.875-2.511719 6.230468-2.378906 2.351563.128906 4.46875 1.230469 5.964844 3.097656 2.542969 3.175781 2.136719 8.0625-.929688 11.128906l-193.074218 193.078125c-9.472656 9.472656-9.472656 24.882813 0 34.355469l15.769531 15.769531c16.332031 16.335938 18.957031 42.183594 6.234375 61.464844l-13.878906 21.039062c-1.5 2.277344-3.683594 2.816407-4.847656 2.933594-1.164063.117188-3.410157.027344-5.339844-1.902344-2.207032-2.207031-2.5625-5.703124-.84375-8.308593l13.878906-21.035157c9.28125-14.070312 7.367188-32.929687-4.546875-44.847656l-15.773437-15.769531c-4.585938-4.589844-10.6875-7.117187-17.175782-7.117187-6.492187 0-12.589844 2.527343-17.179687 7.117187l-14.382813 14.382813-11.554687-11.558594 14.382812-14.378906c9.472657-9.472657 9.472657-24.886719 0-34.359376l-15.769531-15.769531c-16.335938-16.335937-18.957031-42.183593-6.238281-61.464843l13.878906-21.035157c1.503906-2.28125 3.683594-2.816406 4.847656-2.9375 1.167969-.117187 3.410157-.027343 5.339844 1.902344 2.207031 2.207031 2.5625 5.703125.84375 8.3125l-13.878906 21.035156c-9.28125 14.066407-7.367188 32.925781 4.550781 44.84375l15.769531 15.769531c9.472657 9.472657 24.882813 9.472657 34.355469 0l42.066406-42.066406c2.929688-2.925781 2.929688-7.675781 0-10.605468-2.929687-2.925782-7.675781-2.925782-10.605468 0l-42.066407 42.066406c-3.625 3.625-9.519531 3.625-13.144531 0l-15.769531-15.769532c-6.902344-6.902343-8.011719-17.828124-2.636719-25.980468l13.878906-21.035156c5.625-8.523438 4.464844-19.953126-2.757812-27.175782-4.609375-4.609375-10.972656-6.878906-17.457032-6.21875-6.488281.660156-12.265624 4.15625-15.855468 9.597656l-13.878906 21.039063c-16.625 25.195313-13.195313 58.980469 8.152343 80.328125l15.769531 15.773438c3.625 3.625 3.625 9.519531 0 13.144531l-14.382812 14.382812-.410156-.410156c-1.40625-1.40625-3.3125-2.199219-5.300782-2.199219-1.992187 0-3.898437.792969-5.304687 2.199219l-88.933594 88.925781c-12.359375 12.363282-12.359375 32.480469 0 44.839844 5.992188 5.988281 13.953125 9.289062 22.421875 9.289062s16.429688-3.300781 22.417969-9.289062l88.929687-88.925781c2.929688-2.929688 2.929688-7.679688 0-10.609375zm-52.488281 41.886718-30.871093-16.386718 8.660156-8.660156 30.871094 16.386718zm-19.75 19.75-30.871093-16.386718 8.660156-8.660156 30.867187 16.386718zm-21.992187 21.992188-23.628906-23.628906 3.65625-3.65625 30.871093 16.386718zm-28.929688 5.300781c-4.605468-4.605469-5.941406-11.25-4.03125-17.050781l21.09375 21.089844c-1.675781.554687-3.4375.855468-5.25.855468-4.464844 0-8.65625-1.738281-11.8125-4.894531zm90.425782-66.796875-30.871094-16.386718 24.070312-24.070313.40625.40625s.003906.003906.003906.003906c.003907.003907.003907.003907.003907.003907l23.214843 23.214843zm0 0"/><path d="m402.578125 253.808594 1.054687 1.054687c1.40625 1.40625 3.316407 2.199219 5.304688 2.199219s3.894531-.792969 5.300781-2.199219l88.929688-88.929687c12.363281-12.363282 12.363281-32.476563 0-44.839844-5.988281-5.988281-13.949219-9.285156-22.417969-9.285156s-16.429688 3.296875-22.421875 9.285156l-88.929687 88.929688c-2.925782 2.929687-2.925782 7.675781 0 10.605468l.410156.410156-14.382813 14.382813c-1.753906 1.757813-4.089843 2.722656-6.570312 2.722656-2.484375 0-4.816407-.964843-6.574219-2.722656l-15.769531-15.769531c-21.347657-21.347656-55.132813-24.777344-80.332031-8.148438l-21.035157 13.875c-5.441406 3.589844-8.9375 9.371094-9.597656 15.855469-.65625 6.484375 1.609375 12.851563 6.21875 17.457031 7.222656 7.222656 18.652344 8.382813 27.175781 2.757813l21.035156-13.875c8.148438-5.378907 19.074219-4.269531 25.980469 2.632812l15.769531 15.769531c1.753907 1.757813 2.722657 4.089844 2.722657 6.574219s-.96875 4.816407-2.722657 6.574219l-193.367187 193.363281c-4.648437 4.652344-7.109375 11.089844-6.75 17.664063.359375 6.566406 3.53125 12.707031 8.695313 16.847656 4.183593 3.351562 9.226562 5 14.289062 5 6.074219 0 12.171875-2.375 16.828125-7.03125l33.265625-33.265625c2.929688-2.929687 2.929688-7.679687 0-10.605469-2.929688-2.929687-7.675781-2.929687-10.605469 0l-33.265625 33.265625c-3.066406 3.066407-7.957031 3.476563-11.132812.933594-1.867188-1.5-2.964844-3.617187-3.097656-5.96875-.128907-2.351563.71875-4.566406 2.382812-6.230469l193.363281-193.367187c4.589844-4.589844 7.117188-10.6875 7.117188-17.179688 0-6.488281-2.527344-12.589843-7.117188-17.175781l-15.769531-15.769531c-11.917969-11.917969-30.777344-13.832031-44.84375-4.550781l-21.035156 13.875c-2.609375 1.722656-6.105469 1.367187-8.3125-.839844-1.929688-1.929688-2.019532-4.175782-1.898438-5.339844.117188-1.167969.65625-3.347656 2.933594-4.847656l21.035156-13.878906c19.28125-12.722657 45.132813-10.097657 61.464844 6.234374l15.773438 15.769532c4.585937 4.589844 10.6875 7.117187 17.175781 7.117187 6.492187 0 12.589843-2.527343 17.179687-7.117187l14.382813-14.382813 11.554687 11.558594-14.382812 14.382813c-9.46875 9.472656-9.46875 24.886718 0 34.355468l15.769531 15.773438c11.917969 11.914062 30.78125 13.828125 44.847656 4.546875l21.035157-13.875c2.609374-1.71875 6.101562-1.363281 8.3125.84375 1.929687 1.929687 2.019531 4.171875 1.898437 5.335937-.117187 1.167969-.65625 3.34375-2.933594 4.847656l-21.039062 13.878907c-19.28125 12.722656-45.128907 10.097656-61.464844-6.234375l-15.769531-15.769532c-4.585938-4.589843-10.6875-7.117187-17.175782-7.117187-6.492187 0-12.589843 2.527344-17.179687 7.117187l-140.011719 140.011719c-2.929687 2.925781-2.929687 7.675781 0 10.605469 1.464844 1.460938 3.382813 2.195312 5.304688 2.195312 1.917968 0 3.835937-.730468 5.300781-2.195312l140.011719-140.011719c1.757812-1.757812 4.089844-2.722656 6.574218-2.722656 2.480469 0 4.816407.964844 6.570313 2.722656l15.769531 15.769531c21.347656 21.347657 55.132813 24.777344 80.332032 8.148438l21.039062-13.878906c5.441406-3.589844 8.9375-9.367188 9.597656-15.851563.65625-6.488281-1.609375-12.851562-6.21875-17.460937-7.222656-7.222656-18.652344-8.378906-27.175781-2.753906l-21.039063 13.875c-8.148437 5.378906-19.074218 4.269531-25.980468-2.636719l-15.769532-15.769531c-3.625-3.625-3.625-9.519532 0-13.144532zm26.554687-82.304688 16.386719 30.871094-8.660156 8.660156-16.386719-30.871094zm19.75-19.75 16.386719 30.871094-8.660156 8.65625-16.386719-30.867188zm27.480469 19.777344-16.386719-30.871094 3.65625-3.65625 23.628907 23.628906zm16.199219-39.832031c4.605469 4.609375 5.941406 11.253906 4.03125 17.054687l-21.089844-21.09375c1.671875-.550781 3.433594-.851562 5.246094-.851562 4.460938 0 8.660156 1.738281 11.8125 4.890625zm-83.183594 59.558593 16.386719 30.867188-16.828125 16.832031-23.628906-23.628906zm0 0"/></svg>