<svg viewBox="0 0 512.00027 512" xmlns="http://www.w3.org/2000/svg"><path d="m191.707031 231.4375c-2.929687-2.929688-7.675781-2.929688-10.605469 0l-120.082031 120.082031-34.859375-34.859375 290.550782-290.554687 34.859374 34.859375-152.804687 152.808594c-2.929687 2.929687-2.929687 7.679687 0 10.605468 2.925781 2.929688 7.675781 2.929688 10.605469 0l62.140625-62.140625 55.183593 55.1875c2.347657 2.347657 5.425782 3.519531 8.507813 3.519531 3.078125 0 6.160156-1.171874 8.503906-3.519531l25.851563-25.847656c2.269531-2.273437 3.523437-5.292969 3.523437-8.507813 0-3.214843-1.253906-6.234374-3.523437-8.503906l-55.1875-55.1875 49.960937-49.964844c3.289063-3.289062 4.246094-8.035156 2.890625-12.179687l6.9375-6.941406c4.691406-4.6875 4.691406-12.320313 0-17.011719l-29.765625-29.765625c-4.691406-4.6875-12.320312-4.6875-17.011719 0l-6.933593 6.933594c-1.191407-.390625-2.445313-.605469-3.738281-.605469-3.191407 0-6.195313 1.246094-8.449219 3.5l-294.863281 294.863281c-2.257813 2.257813-3.5 5.257813-3.5 8.453125 0 1.289063.210937 2.546875.601562 3.738282l-7.019531 7.019531c-4.640625 4.640625-4.640625 12.195312 0 16.835937l29.945312 29.941406c2.246094 2.25 5.234375 3.488282 8.417969 3.488282 3.179688 0 6.167969-1.238282 8.414062-3.488282l7.03125-7.027343c1.210938.398437 2.46875.605469 3.730469.605469 3.0625 0 6.121094-1.164063 8.453125-3.496094l122.234375-122.234375c2.929688-2.929688 2.929688-7.679688 0-10.605469zm165.144531-48.367188-21.648437 21.648438-53.085937-53.085938 21.648437-21.648437zm-20.960937-166.84375 25.5625 25.5625-3.921875 3.921876-25.566406-25.5625zm-319.613281 319.609376 3.921875-3.921876 25.566406 25.566407-3.921875 3.921875zm0 0"/><path d="m508.519531 167.640625-29.945312-29.941406c-4.640625-4.640625-12.191407-4.644531-16.832031 0l-7.027344 7.027343c-4.148438-1.355468-8.894532-.402343-12.183594 2.886719l-14.628906 14.628907c-2.929688 2.929687-2.929688 7.679687 0 10.605468 2.929687 2.929688 7.679687 2.929688 10.605468 0l12.472657-12.472656 34.859375 34.859375-290.550782 290.550781-34.859374-34.855468 258.277343-258.28125c2.929688-2.929688 2.929688-7.679688 0-10.605469-2.925781-2.929688-7.675781-2.929688-10.605469 0l-167.613281 167.613281-55.183593-55.1875c-4.691407-4.6875-12.324219-4.691406-17.011719 0l-25.851563 25.847656c-2.269531 2.273438-3.523437 5.292969-3.523437 8.507813 0 3.214843 1.25 6.234375 3.523437 8.507812l55.183594 55.183594-49.960938 49.964844c-3.289062 3.289062-4.246093 8.035156-2.886718 12.179687l-6.941406 6.941406c-4.6875 4.6875-4.6875 12.320313 0 17.011719l29.769531 29.765625c2.34375 2.34375 5.421875 3.515625 8.503906 3.515625 3.078125 0 6.160156-1.171875 8.507813-3.515625l6.929687-6.933594c1.191406.394532 2.449219.605469 3.738281.605469 3.195313 0 6.195313-1.242187 8.453125-3.5l294.863281-294.863281c2.257813-2.257812 3.5-5.257812 3.5-8.453125 0-1.289063-.210937-2.546875-.601562-3.738281l7.019531-7.019532c4.640625-4.640624 4.640625-12.191406 0-16.835937zm-353.371093 161.183594 21.648437-21.648438 53.085937 53.085938-21.648437 21.648437zm-4.601563 141.28125 3.921875-3.921875 25.566406 25.5625-3.921875 3.925781zm345.175781-294.046875-3.921875 3.921875-25.566406-25.566407 3.921875-3.921874zm0 0"/></svg>